<svg xmlns="http://www.w3.org/2000/svg" viewBox="0 0 20 20">
  <path id="Path_210" data-name="Path 210" d="M14.146,12.227l7.514,7.514a.847.847,0,0,1,.174.521.624.624,0,0,1-.174.462l-1.329,1.33a.628.628,0,0,1-.463.174.849.849,0,0,1-.521-.174l-7.515-7.514L4.317,22.053a.843.843,0,0,1-.519.174.622.622,0,0,1-.463-.174L2,20.724a.627.627,0,0,1-.172-.462A.851.851,0,0,1,2,19.741L9.52,12.227,2,4.713a.851.851,0,0,1-.172-.521A.627.627,0,0,1,2,3.73L3.336,2.4A.622.622,0,0,1,3.8,2.227a.843.843,0,0,1,.519.174l7.515,7.514L19.347,2.4a.849.849,0,0,1,.521-.174.628.628,0,0,1,.463.174l1.329,1.33a.624.624,0,0,1,.174.462.847.847,0,0,1-.174.521Z" transform="translate(-1.833 -2.227)"/>
</svg>
